# Blender v2.78 (sub 0) OBJ File: ''
# www.blender.org
o Text
v 0.471000 0.030000 -0.312000
v 0.471000 0.030000 -0.224000
v 0.398000 0.030000 -0.224000
v 0.398000 0.030000 0.000000
v 0.300000 0.030000 0.000000
v 0.300000 0.030000 -0.224000
v 0.011000 0.030000 -0.224000
v 0.011000 0.030000 -0.269000
v 0.356000 0.030000 -0.691000
v 0.398000 0.030000 -0.691000
v 0.398000 0.030000 -0.312000
v 0.300000 0.030000 -0.312000
v 0.300000 0.030000 -0.506000
v 0.298000 0.030000 -0.506000
v 0.142000 0.030000 -0.312000
v 0.471000 -0.030000 -0.312000
v 0.471000 -0.030000 -0.224000
v 0.398000 -0.030000 -0.224000
v 0.398000 -0.030000 0.000000
v 0.300000 -0.030000 0.000000
v 0.300000 -0.030000 -0.224000
v 0.011000 -0.030000 -0.224000
v 0.011000 -0.030000 -0.269000
v 0.356000 -0.030000 -0.691000
v 0.398000 -0.030000 -0.691000
v 0.398000 -0.030000 -0.312000
v 0.300000 -0.030000 -0.312000
v 0.300000 -0.030000 -0.506000
v 0.298000 -0.030000 -0.506000
v 0.142000 -0.030000 -0.312000
v 0.471000 -0.030000 -0.312000
v 0.471000 0.030000 -0.312000
v 0.471000 -0.030000 -0.224000
v 0.471000 0.030000 -0.224000
v 0.398000 -0.030000 -0.224000
v 0.398000 0.030000 -0.224000
v 0.398000 -0.030000 0.000000
v 0.398000 0.030000 0.000000
v 0.300000 -0.030000 0.000000
v 0.300000 0.030000 0.000000
v 0.300000 -0.030000 -0.224000
v 0.300000 0.030000 -0.224000
v 0.011000 -0.030000 -0.224000
v 0.011000 0.030000 -0.224000
v 0.011000 -0.030000 -0.269000
v 0.011000 0.030000 -0.269000
v 0.356000 -0.030000 -0.691000
v 0.356000 0.030000 -0.691000
v 0.398000 -0.030000 -0.691000
v 0.398000 0.030000 -0.691000
v 0.398000 -0.030000 -0.312000
v 0.398000 0.030000 -0.312000
v 0.300000 -0.030000 -0.312000
v 0.300000 0.030000 -0.312000
v 0.300000 -0.030000 -0.506000
v 0.300000 0.030000 -0.506000
v 0.298000 -0.030000 -0.506000
v 0.298000 0.030000 -0.506000
v 0.142000 -0.030000 -0.312000
v 0.142000 0.030000 -0.312000
vn 0.0000 1.0000 -0.0000
vn 0.0000 0.0000 1.0000
vn 0.0000 -1.0000 0.0000
vn 0.7071 0.0000 -0.7071
vn 0.7071 0.0000 0.7071
vn -0.7071 0.0000 0.7071
vn -0.9418 0.0000 -0.3360
vn -0.4284 0.0000 -0.9036
vn -0.7071 0.0000 -0.7071
vn 0.4321 0.0000 0.9018
vn 0.9018 0.0000 -0.4321
s off
f 8//1 10//1 9//1
f 8//1 14//1 10//1
f 14//1 13//1 10//1
f 13//1 11//1 10//1
f 8//1 15//1 14//1
f 12//1 11//1 13//1
f 8//1 12//1 15//1
f 8//1 11//1 12//1
f 8//1 1//1 11//1
f 8//1 2//1 1//1
f 7//1 2//1 8//1
f 6//2 2//2 7//2
f 5//1 3//1 6//1
f 3//2 2//2 6//2
f 5//1 4//1 3//1
f 25//3 23//3 24//3
f 29//3 23//3 25//3
f 28//3 29//3 25//3
f 26//3 28//3 25//3
f 30//3 23//3 29//3
f 26//3 27//3 28//3
f 27//3 23//3 30//3
f 26//3 23//3 27//3
f 16//3 23//3 26//3
f 17//3 23//3 16//3
f 17//3 22//3 23//3
f 17//2 21//2 22//2
f 18//3 20//3 21//3
f 17//2 18//2 21//2
f 19//3 20//3 18//3
s 1
f 32//4 34//5 33//5 31//4
f 34//5 36//5 35//5 33//5
f 36//5 38//5 37//5 35//5
f 38//5 40//6 39//6 37//5
f 40//6 42//6 41//6 39//6
f 42//6 44//6 43//6 41//6
f 44//6 46//7 45//7 43//6
f 46//7 48//8 47//8 45//7
f 48//8 50//4 49//4 47//8
f 50//4 52//4 51//4 49//4
f 52//4 32//4 31//4 51//4
f 54//9 56//6 55//6 53//9
f 56//6 58//10 57//10 55//6
f 58//10 60//11 59//11 57//10
f 60//11 54//9 53//9 59//11
