# Blender v2.79 (sub 0) OBJ File: ''
# www.blender.org
mtllib distmedia.mtl
o Text_Untitled
v 1.377495 1.030009 0.963412
v 1.286495 1.030009 0.762412
v 0.996495 1.030009 0.762412
v 0.910495 1.030009 0.963412
v 0.810495 1.030009 0.963412
v 1.103495 1.030009 0.277412
v 1.172495 1.030009 0.277412
v 1.477495 1.030009 0.963412
v 1.246495 1.030009 0.674412
v 1.136495 1.030009 0.427412
v 1.034495 1.030009 0.674412
v 0.636495 1.030009 0.963412
v 0.636495 1.030009 0.281412
v 0.734495 1.030009 0.281412
v 0.734495 1.030009 0.963412
v 0.151495 1.030009 0.281412
v 0.211575 1.030009 0.285046
v 0.265884 1.030009 0.295490
v 0.314526 1.030009 0.312052
v 0.357606 1.030009 0.334041
v 0.395227 1.030009 0.360766
v 0.427495 1.030009 0.391537
v 0.454512 1.030009 0.425661
v 0.476384 1.030009 0.462449
v 0.493214 1.030009 0.501208
v 0.505106 1.030009 0.541250
v 0.512165 1.030009 0.581881
v 0.514495 1.030009 0.622412
v 0.511669 1.030009 0.665883
v 0.503305 1.030009 0.708435
v 0.489573 1.030009 0.749521
v 0.470643 1.030009 0.788597
v 0.446685 1.030009 0.825117
v 0.417870 1.030009 0.858537
v 0.384367 1.030009 0.888310
v 0.346347 1.030009 0.913893
v 0.303979 1.030009 0.934740
v 0.257435 1.030009 0.950305
v 0.206883 1.030009 0.960044
v 0.152495 1.030009 0.963412
v -0.113505 1.030009 0.963412
v -0.113505 1.030009 0.281412
v 0.140495 1.030009 0.875412
v 0.192502 1.030009 0.872038
v 0.237800 1.030009 0.862504
v 0.276807 1.030009 0.847693
v 0.309939 1.030009 0.828486
v 0.337613 1.030009 0.805765
v 0.360245 1.030009 0.780412
v 0.378252 1.030009 0.753309
v 0.392050 1.030009 0.725338
v 0.402057 1.030009 0.697380
v 0.408689 1.030009 0.670319
v 0.412363 1.030009 0.645036
v 0.413495 1.030009 0.622412
v 0.411672 1.030009 0.588654
v 0.406166 1.030009 0.556101
v 0.396917 1.030009 0.525083
v 0.383865 1.030009 0.495930
v 0.366953 1.030009 0.468971
v 0.346120 1.030009 0.444537
v 0.321308 1.030009 0.422956
v 0.292458 1.030009 0.404560
v 0.259510 1.030009 0.389677
v 0.222407 1.030009 0.378638
v 0.181088 1.030009 0.371773
v 0.135495 1.030009 0.369412
v -0.015505 1.030009 0.369412
v -0.015505 1.030009 0.875412
v -0.439505 1.030009 0.236412
v -0.494505 1.030009 0.236412
v -0.427505 1.030009 0.089412
v -0.327505 1.030009 0.089412
v -0.516505 1.030009 0.369412
v -0.516505 1.030009 0.575412
v -0.237505 1.030009 0.575412
v -0.237505 1.030009 0.663412
v -0.516505 1.030009 0.663412
v -0.516505 1.030009 0.875412
v -0.218505 1.030009 0.875412
v -0.218505 1.030009 0.963412
v -0.614505 1.030009 0.963412
v -0.614505 1.030009 0.281412
v -0.227505 1.030009 0.281412
v -0.227505 1.030009 0.369412
v -0.859505 1.030009 0.963412
v -0.859505 1.030009 0.432412
v -0.861505 1.030009 0.432412
v -1.071505 1.030009 0.696412
v -1.087505 1.030009 0.696412
v -1.297505 1.030009 0.432412
v -1.299505 1.030009 0.432412
v -1.299505 1.030009 0.963412
v -1.397505 1.030009 0.963412
v -1.397505 1.030009 0.281412
v -1.305505 1.030009 0.281412
v -1.079505 1.030009 0.561412
v -0.852505 1.030009 0.281412
v -0.761505 1.030009 0.281412
v -0.761505 1.030009 0.963412
v 1.377495 0.970009 0.963412
v 1.286495 0.970009 0.762412
v 0.996495 0.970009 0.762412
v 0.910495 0.970009 0.963412
v 0.810495 0.970009 0.963412
v 1.103495 0.970009 0.277412
v 1.172495 0.970009 0.277412
v 1.477495 0.970009 0.963412
v 1.246495 0.970009 0.674412
v 1.136495 0.970009 0.427412
v 1.034495 0.970009 0.674412
v 0.636495 0.970009 0.963412
v 0.636495 0.970009 0.281412
v 0.734495 0.970009 0.281412
v 0.734495 0.970009 0.963412
v 0.151495 0.970009 0.281412
v 0.211575 0.970009 0.285046
v 0.265884 0.970009 0.295490
v 0.314526 0.970009 0.312052
v 0.357606 0.970009 0.334041
v 0.395227 0.970009 0.360766
v 0.427495 0.970009 0.391537
v 0.454512 0.970009 0.425661
v 0.476384 0.970009 0.462449
v 0.493214 0.970009 0.501208
v 0.505106 0.970009 0.541250
v 0.512165 0.970009 0.581881
v 0.514495 0.970009 0.622412
v 0.511669 0.970009 0.665883
v 0.503305 0.970009 0.708435
v 0.489573 0.970009 0.749521
v 0.470643 0.970009 0.788597
v 0.446685 0.970009 0.825117
v 0.417870 0.970009 0.858537
v 0.384367 0.970009 0.888310
v 0.346347 0.970009 0.913893
v 0.303979 0.970009 0.934740
v 0.257435 0.970009 0.950305
v 0.206883 0.970009 0.960044
v 0.152495 0.970009 0.963412
v -0.113505 0.970009 0.963412
v -0.113505 0.970009 0.281412
v 0.140495 0.970009 0.875412
v 0.192502 0.970009 0.872038
v 0.237800 0.970009 0.862504
v 0.276807 0.970009 0.847693
v 0.309939 0.970009 0.828486
v 0.337613 0.970009 0.805765
v 0.360245 0.970009 0.780412
v 0.378252 0.970009 0.753309
v 0.392050 0.970009 0.725338
v 0.402057 0.970009 0.697380
v 0.408689 0.970009 0.670319
v 0.412363 0.970009 0.645036
v 0.413495 0.970009 0.622412
v 0.411672 0.970009 0.588654
v 0.406166 0.970009 0.556101
v 0.396917 0.970009 0.525083
v 0.383865 0.970009 0.495930
v 0.366953 0.970009 0.468971
v 0.346120 0.970009 0.444537
v 0.321308 0.970009 0.422956
v 0.292458 0.970009 0.404560
v 0.259510 0.970009 0.389677
v 0.222407 0.970009 0.378638
v 0.181088 0.970009 0.371773
v 0.135495 0.970009 0.369412
v -0.015505 0.970009 0.369412
v -0.015505 0.970009 0.875412
v -0.439505 0.970009 0.236412
v -0.494505 0.970009 0.236412
v -0.427505 0.970009 0.089412
v -0.327505 0.970009 0.089412
v -0.516505 0.970009 0.369412
v -0.516505 0.970009 0.575412
v -0.237505 0.970009 0.575412
v -0.237505 0.970009 0.663412
v -0.516505 0.970009 0.663412
v -0.516505 0.970009 0.875412
v -0.218505 0.970009 0.875412
v -0.218505 0.970009 0.963412
v -0.614505 0.970009 0.963412
v -0.614505 0.970009 0.281412
v -0.227505 0.970009 0.281412
v -0.227505 0.970009 0.369412
v -0.859505 0.970009 0.963412
v -0.859505 0.970009 0.432412
v -0.861505 0.970009 0.432412
v -1.071505 0.970009 0.696412
v -1.087505 0.970009 0.696412
v -1.297505 0.970009 0.432412
v -1.299505 0.970009 0.432412
v -1.299505 0.970009 0.963412
v -1.397505 0.970009 0.963412
v -1.397505 0.970009 0.281412
v -1.305505 0.970009 0.281412
v -1.079505 0.970009 0.561412
v -0.852505 0.970009 0.281412
v -0.761505 0.970009 0.281412
v -0.761505 0.970009 0.963412
v -0.859505 0.970009 0.963412
v -0.859505 1.030009 0.963412
v -0.859505 0.970009 0.432412
v -0.859505 1.030009 0.432412
v -0.861505 0.970009 0.432412
v -0.861505 1.030009 0.432412
v -1.071505 0.970009 0.696412
v -1.071505 1.030009 0.696412
v -1.087505 0.970009 0.696412
v -1.087505 1.030009 0.696412
v -1.297505 0.970009 0.432412
v -1.297505 1.030009 0.432412
v -1.299505 0.970009 0.432412
v -1.299505 1.030009 0.432412
v -1.299505 0.970009 0.963412
v -1.299505 1.030009 0.963412
v -1.397505 0.970009 0.963412
v -1.397505 1.030009 0.963412
v -1.397505 0.970009 0.281412
v -1.397505 1.030009 0.281412
v -1.305505 0.970009 0.281412
v -1.305505 1.030009 0.281412
v -1.079505 0.970009 0.561412
v -1.079505 1.030009 0.561412
v -0.852505 0.970009 0.281412
v -0.852505 1.030009 0.281412
v -0.761505 0.970009 0.281412
v -0.761505 1.030009 0.281412
v -0.761505 0.970009 0.963412
v -0.761505 1.030009 0.963412
v -0.516505 0.970009 0.369412
v -0.516505 1.030009 0.369412
v -0.516505 0.970009 0.575412
v -0.516505 1.030009 0.575412
v -0.237505 0.970009 0.575412
v -0.237505 1.030009 0.575412
v -0.237505 0.970009 0.663412
v -0.237505 1.030009 0.663412
v -0.516505 0.970009 0.663412
v -0.516505 1.030009 0.663412
v -0.516505 0.970009 0.875412
v -0.516505 1.030009 0.875412
v -0.218505 0.970009 0.875412
v -0.218505 1.030009 0.875412
v -0.218505 0.970009 0.963412
v -0.218505 1.030009 0.963412
v -0.614505 0.970009 0.963412
v -0.614505 1.030009 0.963412
v -0.614505 0.970009 0.281412
v -0.614505 1.030009 0.281412
v -0.227505 0.970009 0.281412
v -0.227505 1.030009 0.281412
v -0.227505 0.970009 0.369412
v -0.227505 1.030009 0.369412
v -0.439505 0.970009 0.236412
v -0.439505 1.030009 0.236412
v -0.494505 0.970009 0.236412
v -0.494505 1.030009 0.236412
v -0.427505 0.970009 0.089412
v -0.427505 1.030009 0.089412
v -0.327505 0.970009 0.089412
v -0.327505 1.030009 0.089412
v 0.151495 0.970009 0.281412
v 0.151495 1.030009 0.281412
v 0.211575 0.970009 0.285046
v 0.211575 1.030009 0.285046
v 0.265884 0.970009 0.295490
v 0.265884 1.030009 0.295490
v 0.314526 0.970009 0.312052
v 0.314526 1.030009 0.312052
v 0.357606 0.970009 0.334041
v 0.357606 1.030009 0.334041
v 0.395227 0.970009 0.360766
v 0.395227 1.030009 0.360766
v 0.427495 0.970009 0.391537
v 0.427495 1.030009 0.391537
v 0.454512 0.970009 0.425661
v 0.454512 1.030009 0.425661
v 0.476384 0.970009 0.462449
v 0.476384 1.030009 0.462449
v 0.493214 0.970009 0.501208
v 0.493214 1.030009 0.501208
v 0.505106 0.970009 0.541250
v 0.505106 1.030009 0.541250
v 0.512165 0.970009 0.581881
v 0.512165 1.030009 0.581881
v 0.514495 0.970009 0.622412
v 0.514495 1.030009 0.622412
v 0.511669 0.970009 0.665883
v 0.511669 1.030009 0.665883
v 0.503305 0.970009 0.708435
v 0.503305 1.030009 0.708435
v 0.489573 0.970009 0.749521
v 0.489573 1.030009 0.749521
v 0.470643 0.970009 0.788597
v 0.470643 1.030009 0.788597
v 0.446685 0.970009 0.825117
v 0.446685 1.030009 0.825117
v 0.417870 0.970009 0.858537
v 0.417870 1.030009 0.858537
v 0.384367 0.970009 0.888310
v 0.384367 1.030009 0.888310
v 0.346347 0.970009 0.913893
v 0.346347 1.030009 0.913893
v 0.303979 0.970009 0.934740
v 0.303979 1.030009 0.934740
v 0.257435 0.970009 0.950305
v 0.257435 1.030009 0.950305
v 0.206883 0.970009 0.960044
v 0.206883 1.030009 0.960044
v 0.152495 0.970009 0.963412
v 0.152495 1.030009 0.963412
v -0.113505 0.970009 0.963412
v -0.113505 1.030009 0.963412
v -0.113505 0.970009 0.281412
v -0.113505 1.030009 0.281412
v 0.140495 0.970009 0.875412
v 0.140495 1.030009 0.875412
v 0.192502 0.970009 0.872038
v 0.192502 1.030009 0.872038
v 0.237800 0.970009 0.862504
v 0.237800 1.030009 0.862504
v 0.276807 0.970009 0.847693
v 0.276807 1.030009 0.847693
v 0.309939 0.970009 0.828486
v 0.309939 1.030009 0.828486
v 0.337613 0.970009 0.805765
v 0.337613 1.030009 0.805765
v 0.360245 0.970009 0.780412
v 0.360245 1.030009 0.780412
v 0.378252 0.970009 0.753309
v 0.378252 1.030009 0.753309
v 0.392050 0.970009 0.725338
v 0.392050 1.030009 0.725338
v 0.402057 0.970009 0.697380
v 0.402057 1.030009 0.697380
v 0.408689 0.970009 0.670319
v 0.408689 1.030009 0.670319
v 0.412363 0.970009 0.645036
v 0.412363 1.030009 0.645036
v 0.413495 0.970009 0.622412
v 0.413495 1.030009 0.622412
v 0.411672 0.970009 0.588654
v 0.411672 1.030009 0.588654
v 0.406166 0.970009 0.556101
v 0.406166 1.030009 0.556101
v 0.396917 0.970009 0.525083
v 0.396917 1.030009 0.525083
v 0.383865 0.970009 0.495930
v 0.383865 1.030009 0.495930
v 0.366953 0.970009 0.468971
v 0.366953 1.030009 0.468971
v 0.346120 0.970009 0.444537
v 0.346120 1.030009 0.444537
v 0.321308 0.970009 0.422956
v 0.321308 1.030009 0.422956
v 0.292458 0.970009 0.404560
v 0.292458 1.030009 0.404560
v 0.259510 0.970009 0.389677
v 0.259510 1.030009 0.389677
v 0.222407 0.970009 0.378638
v 0.222407 1.030009 0.378638
v 0.181088 0.970009 0.371773
v 0.181088 1.030009 0.371773
v 0.135495 0.970009 0.369412
v 0.135495 1.030009 0.369412
v -0.015505 0.970009 0.369412
v -0.015505 1.030009 0.369412
v -0.015505 0.970009 0.875412
v -0.015505 1.030009 0.875412
v 0.636495 0.970009 0.963412
v 0.636495 1.030009 0.963412
v 0.636495 0.970009 0.281412
v 0.636495 1.030009 0.281412
v 0.734495 0.970009 0.281412
v 0.734495 1.030009 0.281412
v 0.734495 0.970009 0.963412
v 0.734495 1.030009 0.963412
v 1.377495 0.970009 0.963412
v 1.377495 1.030009 0.963412
v 1.286495 0.970009 0.762412
v 1.286495 1.030009 0.762412
v 0.996495 0.970009 0.762412
v 0.996495 1.030009 0.762412
v 0.910495 0.970009 0.963412
v 0.910495 1.030009 0.963412
v 0.810495 0.970009 0.963412
v 0.810495 1.030009 0.963412
v 1.103495 0.970009 0.277412
v 1.103495 1.030009 0.277412
v 1.172495 0.970009 0.277412
v 1.172495 1.030009 0.277412
v 1.477495 0.970009 0.963412
v 1.477495 1.030009 0.963412
v 1.246495 0.970009 0.674412
v 1.246495 1.030009 0.674412
v 1.136495 0.970009 0.427412
v 1.136495 1.030009 0.427412
v 1.034495 0.970009 0.674412
v 1.034495 1.030009 0.674412
vn 0.0000 1.0000 0.0000
vn 0.0000 -1.0000 0.0000
vn -0.7071 0.0000 0.7071
vn 0.4344 0.0000 0.9007
vn -0.4344 0.0000 0.9007
vn 0.7071 0.0000 0.7071
vn -0.7071 0.0000 -0.7071
vn 0.4312 0.0000 -0.9022
vn 0.0011 0.0000 -1.0000
vn -0.4302 0.0000 -0.9027
vn 0.7071 0.0000 -0.7071
vn 0.4438 0.0000 0.8961
vn -0.8410 0.0000 0.5409
vn -0.5409 0.0000 -0.8410
vn 0.8961 0.0000 -0.4438
vn 0.0302 0.0000 -0.9995
vn 0.1249 0.0000 -0.9922
vn 0.2562 0.0000 -0.9666
vn 0.3894 0.0000 -0.9210
vn 0.5182 0.0000 -0.8552
vn 0.6362 0.0000 -0.7714
vn 0.7389 0.0000 -0.6738
vn 0.8236 0.0000 -0.5671
vn 0.8902 0.0000 -0.4555
vn 0.9396 0.0000 -0.3421
vn 0.9736 0.0000 -0.2283
vn 0.9934 0.0000 -0.1144
vn 1.0000 0.0000 0.0037
vn 0.9916 0.0000 0.1291
vn 0.9668 0.0000 0.2554
vn 0.9261 0.0000 0.3772
vn 0.8699 0.0000 0.4933
vn 0.7984 0.0000 0.6020
vn 0.7124 0.0000 0.7018
vn 0.6126 0.0000 0.7903
vn 0.5010 0.0000 0.8654
vn 0.3802 0.0000 0.9249
vn 0.2537 0.0000 0.9673
vn 0.1257 0.0000 0.9920
vn 0.0309 0.0000 0.9995
vn -0.0324 0.0000 -0.9995
vn -0.1357 0.0000 -0.9907
vn -0.2813 0.0000 -0.9596
vn -0.4297 0.0000 -0.9030
vn -0.5699 0.0000 -0.8217
vn -0.6923 0.0000 -0.7215
vn -0.7915 0.0000 -0.6112
vn -0.8666 0.0000 -0.4989
vn -0.9207 0.0000 -0.3903
vn -0.9576 0.0000 -0.2879
vn -0.9815 0.0000 -0.1911
vn -0.9953 0.0000 -0.0970
vn -1.0000 0.0000 0.0020
vn -0.9939 0.0000 0.1105
vn -0.9739 0.0000 0.2267
vn -0.9375 0.0000 0.3479
vn -0.8820 0.0000 0.4711
vn -0.8061 0.0000 0.5917
vn -0.7106 0.0000 0.7036
vn -0.5986 0.0000 0.8010
vn -0.4759 0.0000 0.8795
vn -0.3492 0.0000 0.9370
vn -0.2250 0.0000 0.9744
vn -0.1080 0.0000 0.9941
vn -0.0258 0.0000 0.9997
vn -0.5420 0.0000 0.8404
vn 0.5507 0.0000 0.8347
vn -0.8345 0.0000 0.5510
vn -0.5510 0.0000 -0.8345
vn 0.5448 0.0000 -0.8385
vn 0.8385 0.0000 0.5448
vn -0.8387 0.0000 -0.5446
vn 0.0137 0.0000 0.9999
vn 0.8311 0.0000 -0.5560
usemtl None
s off
f 5//1 7//1 6//1
f 5//1 10//1 7//1
f 10//1 8//1 7//1
f 5//1 11//1 10//1
f 9//1 8//1 10//1
f 5//1 3//1 11//1
f 3//1 9//1 11//1
f 3//1 2//1 9//1
f 2//1 8//1 9//1
f 5//1 4//1 3//1
f 1//1 8//1 2//1
f 12//1 14//1 13//1
f 12//1 15//1 14//1
f 41//1 68//1 42//1
f 68//1 16//1 42//1
f 68//1 17//1 16//1
f 68//1 18//1 17//1
f 68//1 19//1 18//1
f 68//1 20//1 19//1
f 68//1 21//1 20//1
f 68//1 67//1 21//1
f 67//1 66//1 21//1
f 66//1 22//1 21//1
f 41//1 69//1 68//1
f 65//1 22//1 66//1
f 64//1 22//1 65//1
f 63//1 22//1 64//1
f 63//1 23//1 22//1
f 62//1 23//1 63//1
f 61//1 23//1 62//1
f 61//1 24//1 23//1
f 60//1 24//1 61//1
f 60//1 25//1 24//1
f 59//1 25//1 60//1
f 58//1 25//1 59//1
f 58//1 26//1 25//1
f 57//1 26//1 58//1
f 57//1 27//1 26//1
f 56//1 27//1 57//1
f 56//1 28//1 27//1
f 55//1 28//1 56//1
f 54//1 28//1 55//1
f 54//1 29//1 28//1
f 53//1 29//1 54//1
f 53//1 30//1 29//1
f 52//1 30//1 53//1
f 51//1 30//1 52//1
f 51//1 31//1 30//1
f 50//1 31//1 51//1
f 50//1 32//1 31//1
f 49//1 32//1 50//1
f 48//1 32//1 49//1
f 48//1 33//1 32//1
f 47//1 33//1 48//1
f 47//1 34//1 33//1
f 46//1 34//1 47//1
f 45//1 34//1 46//1
f 45//1 35//1 34//1
f 44//1 35//1 45//1
f 43//1 35//1 44//1
f 41//1 43//1 69//1
f 41//1 35//1 43//1
f 41//1 36//1 35//1
f 41//1 37//1 36//1
f 41//1 38//1 37//1
f 41//1 39//1 38//1
f 41//1 40//1 39//1
f 82//1 74//1 83//1
f 74//1 84//1 83//1
f 74//1 85//1 84//1
f 82//1 75//1 74//1
f 82//1 78//1 75//1
f 78//1 76//1 75//1
f 78//1 77//1 76//1
f 82//1 79//1 78//1
f 82//1 80//1 79//1
f 82//1 81//1 80//1
f 71//1 73//1 72//1
f 71//1 70//1 73//1
f 94//1 96//1 95//1
f 94//1 92//1 96//1
f 92//1 91//1 96//1
f 91//1 97//1 96//1
f 97//1 99//1 98//1
f 97//1 88//1 99//1
f 88//1 87//1 99//1
f 87//1 100//1 99//1
f 94//1 93//1 92//1
f 90//1 97//1 91//1
f 97//1 89//1 88//1
f 86//1 100//1 87//1
f 90//1 89//1 97//1
f 107//2 105//2 106//2
f 110//2 105//2 107//2
f 108//2 110//2 107//2
f 111//2 105//2 110//2
f 108//2 109//2 110//2
f 103//2 105//2 111//2
f 109//2 103//2 111//2
f 102//2 103//2 109//2
f 108//2 102//2 109//2
f 104//2 105//2 103//2
f 108//2 101//2 102//2
f 114//2 112//2 113//2
f 115//2 112//2 114//2
f 168//2 141//2 142//2
f 116//2 168//2 142//2
f 117//2 168//2 116//2
f 118//2 168//2 117//2
f 119//2 168//2 118//2
f 120//2 168//2 119//2
f 121//2 168//2 120//2
f 167//2 168//2 121//2
f 166//2 167//2 121//2
f 122//2 166//2 121//2
f 169//2 141//2 168//2
f 122//2 165//2 166//2
f 122//2 164//2 165//2
f 122//2 163//2 164//2
f 123//2 163//2 122//2
f 123//2 162//2 163//2
f 123//2 161//2 162//2
f 124//2 161//2 123//2
f 124//2 160//2 161//2
f 125//2 160//2 124//2
f 125//2 159//2 160//2
f 125//2 158//2 159//2
f 126//2 158//2 125//2
f 126//2 157//2 158//2
f 127//2 157//2 126//2
f 127//2 156//2 157//2
f 128//2 156//2 127//2
f 128//2 155//2 156//2
f 128//2 154//2 155//2
f 129//2 154//2 128//2
f 129//2 153//2 154//2
f 130//2 153//2 129//2
f 130//2 152//2 153//2
f 130//2 151//2 152//2
f 131//2 151//2 130//2
f 131//2 150//2 151//2
f 132//2 150//2 131//2
f 132//2 149//2 150//2
f 132//2 148//2 149//2
f 133//2 148//2 132//2
f 133//2 147//2 148//2
f 134//2 147//2 133//2
f 134//2 146//2 147//2
f 134//2 145//2 146//2
f 135//2 145//2 134//2
f 135//2 144//2 145//2
f 135//2 143//2 144//2
f 143//2 141//2 169//2
f 135//2 141//2 143//2
f 136//2 141//2 135//2
f 137//2 141//2 136//2
f 138//2 141//2 137//2
f 139//2 141//2 138//2
f 140//2 141//2 139//2
f 174//2 182//2 183//2
f 184//2 174//2 183//2
f 185//2 174//2 184//2
f 175//2 182//2 174//2
f 178//2 182//2 175//2
f 176//2 178//2 175//2
f 177//2 178//2 176//2
f 179//2 182//2 178//2
f 180//2 182//2 179//2
f 181//2 182//2 180//2
f 173//2 171//2 172//2
f 170//2 171//2 173//2
f 196//2 194//2 195//2
f 192//2 194//2 196//2
f 191//2 192//2 196//2
f 197//2 191//2 196//2
f 199//2 197//2 198//2
f 188//2 197//2 199//2
f 187//2 188//2 199//2
f 200//2 187//2 199//2
f 193//2 194//2 192//2
f 197//2 190//2 191//2
f 189//2 197//2 188//2
f 200//2 186//2 187//2
f 189//2 190//2 197//2
s 1
f 202//3 204//3 203//3 201//3
f 204//3 206//4 205//4 203//3
f 206//4 208//4 207//4 205//4
f 208//4 210//5 209//5 207//4
f 210//5 212//5 211//5 209//5
f 212//5 214//6 213//6 211//5
f 214//6 216//6 215//6 213//6
f 216//6 218//3 217//3 215//6
f 218//3 220//7 219//7 217//3
f 220//7 222//8 221//8 219//7
f 222//8 224//9 223//9 221//8
f 224//9 226//10 225//10 223//9
f 226//10 228//11 227//11 225//10
f 228//11 230//6 229//6 227//11
f 230//6 202//3 201//3 229//6
f 232//6 234//11 233//11 231//6
f 234//11 236//11 235//11 233//11
f 236//11 238//6 237//6 235//11
f 238//6 240//6 239//6 237//6
f 240//6 242//11 241//11 239//6
f 242//11 244//11 243//11 241//11
f 244//11 246//6 245//6 243//11
f 246//6 248//3 247//3 245//6
f 248//3 250//7 249//7 247//3
f 250//7 252//11 251//11 249//7
f 252//11 254//6 253//6 251//11
f 254//6 232//6 231//6 253//6
f 256//12 258//13 257//13 255//12
f 258//13 260//14 259//14 257//13
f 260//14 262//15 261//15 259//14
f 262//15 256//12 255//12 261//15
f 264//16 266//17 265//17 263//16
f 266//17 268//18 267//18 265//17
f 268//18 270//19 269//19 267//18
f 270//19 272//20 271//20 269//19
f 272//20 274//21 273//21 271//20
f 274//21 276//22 275//22 273//21
f 276//22 278//23 277//23 275//22
f 278//23 280//24 279//24 277//23
f 280//24 282//25 281//25 279//24
f 282//25 284//26 283//26 281//25
f 284//26 286//27 285//27 283//26
f 286//27 288//28 287//28 285//27
f 288//28 290//29 289//29 287//28
f 290//29 292//30 291//30 289//29
f 292//30 294//31 293//31 291//30
f 294//31 296//32 295//32 293//31
f 296//32 298//33 297//33 295//32
f 298//33 300//34 299//34 297//33
f 300//34 302//35 301//35 299//34
f 302//35 304//36 303//36 301//35
f 304//36 306//37 305//37 303//36
f 306//37 308//38 307//38 305//37
f 308//38 310//39 309//39 307//38
f 310//39 312//40 311//40 309//39
f 312//40 314//3 313//3 311//40
f 314//3 316//7 315//7 313//3
f 316//7 264//16 263//16 315//7
f 318//41 320//42 319//42 317//41
f 320//42 322//43 321//43 319//42
f 322//43 324//44 323//44 321//43
f 324//44 326//45 325//45 323//44
f 326//45 328//46 327//46 325//45
f 328//46 330//47 329//47 327//46
f 330//47 332//48 331//48 329//47
f 332//48 334//49 333//49 331//48
f 334//49 336//50 335//50 333//49
f 336//50 338//51 337//51 335//50
f 338//51 340//52 339//52 337//51
f 340//52 342//53 341//53 339//52
f 342//53 344//54 343//54 341//53
f 344//54 346//55 345//55 343//54
f 346//55 348//56 347//56 345//55
f 348//56 350//57 349//57 347//56
f 350//57 352//58 351//58 349//57
f 352//58 354//59 353//59 351//58
f 354//59 356//60 355//60 353//59
f 356//60 358//61 357//61 355//60
f 358//61 360//62 359//62 357//61
f 360//62 362//63 361//63 359//62
f 362//63 364//64 363//64 361//63
f 364//64 366//65 365//65 363//64
f 366//65 368//6 367//6 365//65
f 368//6 370//11 369//11 367//6
f 370//11 318//41 317//41 369//11
f 372//3 374//7 373//7 371//3
f 374//7 376//11 375//11 373//7
f 376//11 378//6 377//6 375//11
f 378//6 372//3 371//3 377//6
f 380//66 382//66 381//66 379//66
f 382//66 384//67 383//67 381//66
f 384//67 386//67 385//67 383//67
f 386//67 388//68 387//68 385//67
f 388//68 390//69 389//69 387//68
f 390//69 392//70 391//70 389//69
f 392//70 394//71 393//71 391//70
f 394//71 380//66 379//66 393//71
f 396//72 398//73 397//73 395//72
f 398//73 400//74 399//74 397//73
f 400//74 396//72 395//72 399//74
